<svg id="matters" aria-labelledby="matters-icon" role="img" xmlns="http://www.w3.org/2000/svg" width="320" height="320" viewBox="0 0 320 320">
<path fill="#9a9a90" d="M1435 3054 c-16 -3 -68 -12 -115 -20 -318 -57 -648 -256 -856 -515
-413 -516 -443 -1207 -74 -1760 128 -193 370 -400 584 -500 169 -79 407 -141
446 -116 23 14 27 59 7 75 -7 6 -47 18 -90 27 -267 55 -509 186 -702 380 -287
288 -431 682 -395 1079 38 414 238 762 580 1010 88 64 285 159 394 190 282 81
610 70 869 -28 193 -73 339 -168 492 -321 201 -201 326 -433 382 -712 27 -132
24 -394 -5 -530 -89 -412 -357 -760 -730 -948 -148 -74 -323 -125 -489 -141
l-73 -7 0 136 0 136 98 57 c386 225 442 267 487 367 37 84 45 182 45 548 0
324 -1 340 -20 359 -19 19 -40 18 -67 -3 -10 -7 -13 -87 -13 -336 0 -355 -9
-470 -39 -528 -34 -66 -128 -141 -281 -225 -36 -20 -108 -61 -159 -92 -52 -31
-99 -56 -103 -56 -9 0 -313 174 -395 226 -81 52 -129 100 -154 157 -24 51 -24
56 -27 443 -3 370 -4 392 -22 412 -20 22 -51 20 -70 -3 -8 -10 -11 -131 -10
-393 1 -409 5 -453 55 -537 55 -94 98 -124 488 -348 l87 -51 0 -172 c0 -142 3
-174 15 -184 12 -10 45 -11 133 -7 270 14 549 116 771 282 306 229 494 524
577 905 29 129 26 437 -5 580 -97 455 -403 839 -821 1033 -207 96 -344 127
-585 132 -99 2 -193 1 -210 -1z"/>
<path d="M1572 2698 c-9 -9 -12 -99 -12 -345 0 -183 -2 -333 -4 -333 -3 0 -26
13 -53 29 -26 16 -95 56 -153 89 l-105 60 -3 94 c-2 80 -5 95 -23 111 -26 21
-43 22 -63 1 -14 -14 -16 -90 -16 -687 0 -665 0 -671 21 -715 17 -33 38 -55
88 -87 83 -54 347 -205 358 -205 15 0 364 204 400 234 71 58 68 26 71 768 3
662 3 667 -17 687 -12 12 -29 21 -40 21 -34 0 -46 -29 -51 -129 l-5 -96 -135
-77 c-74 -43 -143 -83 -152 -88 -17 -10 -18 8 -18 318 0 306 -1 330 -18 345
-22 20 -53 22 -70 5z m-224 -674 c165 -94 188 -115 201 -174 16 -72 15 -210
-1 -210 -25 1 -263 147 -283 174 -17 23 -21 46 -23 147 -2 65 -1 119 2 119 4
0 51 -25 104 -56z m623 43 c-1 -4 -1 -57 -1 -117 l0 -110 -32 -34 c-18 -19
-88 -66 -155 -105 l-123 -70 0 111 c0 163 -4 157 215 288 76 45 97 54 96 37z
m-618 -436 c160 -93 182 -112 196 -165 13 -54 15 -216 2 -216 -22 0 -268 150
-286 174 -17 23 -21 46 -23 147 -2 65 -1 119 3 119 3 0 52 -27 108 -59z m617
-65 c-6 -150 -6 -150 -155 -234 -55 -30 -112 -64 -127 -75 l-28 -18 0 109 c0
126 9 160 51 191 31 23 250 151 259 151 3 0 3 -56 0 -124z m-597 -337 c146
-84 167 -103 178 -160 11 -59 11 -209 0 -209 -29 0 -271 152 -291 183 -15 22
-29 257 -16 257 4 0 61 -32 129 -71z m597 -55 l-5 -126 -32 -28 c-17 -15 -64
-47 -105 -70 -40 -23 -94 -55 -120 -71 l-48 -28 0 110 c0 132 11 163 71 202
81 52 224 135 234 136 6 1 8 -44 5 -125z"/>
</svg>
